<svg width="136.816589" height="30.952148" viewBox="0 0 136.817 30.9521" fill="none" xmlns="http://www.w3.org/2000/svg" xmlns:xlink="http://www.w3.org/1999/xlink">
	<desc>
			Created with Pixso.
	</desc>
	<defs/>
	<g opacity="0.600000">
		<path id="Logo" d="M14.1385 0L14.1385 4.50488C11.2422 4.50488 8.4646 5.66113 6.41663 7.71875C4.36865 9.77539 3.21808 12.5664 3.21808 15.4756C3.21808 18.3857 4.36865 21.1758 6.41663 23.2334C8.4646 25.291 11.2422 26.4473 14.1385 26.4473L14.1385 30.9521L0 30.9521L0 0L14.1385 0ZM14.1385 26.4473L14.1385 4.50488C17.0348 4.50488 19.8124 5.66113 21.8604 7.71875C23.9083 9.77539 25.0589 12.5664 25.0589 15.4756C25.0589 18.3857 23.9083 21.1758 21.8604 23.2334C19.8124 25.291 17.0348 26.4473 14.1385 26.4473ZM32.9934 7.26074L36.1588 7.26074L36.1588 22.5781L32.9934 22.5781L32.9934 7.26074ZM134.495 12.0205C133.213 12.0205 132.174 10.9766 132.174 9.68848C132.174 8.40039 133.213 7.35645 134.495 7.35645C135.777 7.35645 136.817 8.40039 136.817 9.68848C136.817 10.9766 135.777 12.0205 134.495 12.0205ZM75.7783 9.27539C75.7783 8.90137 75.8885 8.53711 76.0948 8.22656C76.3012 7.91602 76.5945 7.6748 76.9377 7.53223C77.2809 7.38867 77.6585 7.35156 78.0228 7.4248C78.3871 7.49707 78.7218 7.67676 78.9844 7.94043C79.2471 8.20508 79.426 8.54102 79.4984 8.90723C79.5225 9.02832 79.5345 9.15234 79.5345 9.27539C79.5345 9.52148 79.4864 9.7666 79.3915 9.99707C79.2494 10.3418 79.0087 10.6367 78.6998 10.8438C78.391 11.0508 78.0279 11.1621 77.6564 11.1621C77.16 11.1562 76.6855 10.9561 76.3345 10.6025C75.9835 10.25 75.7838 9.77344 75.7783 9.27539ZM63.2541 17.3311C63.2541 16.2295 63.5792 15.1533 64.1884 14.2383C64.7975 13.3223 65.6632 12.6094 66.676 12.1885C67.6888 11.7676 68.8032 11.6582 69.878 11.874C70.9528 12.0889 71.9398 12.6201 72.7141 13.3994C73.4883 14.1787 74.0151 15.1719 74.2276 16.252C74.2979 16.6094 74.3328 16.9707 74.3328 17.3311C74.3328 18.0605 74.1898 18.7871 73.9081 19.4678C73.4872 20.4844 72.7756 21.3535 71.8632 21.9629C70.9509 22.5732 69.8789 22.8984 68.7828 22.8955C68.054 22.9033 67.331 22.7637 66.6563 22.4863C65.9816 22.209 65.3688 21.7998 64.8539 21.2812C64.3389 20.7627 63.9322 20.1465 63.6575 19.4678C63.3907 18.8096 63.2537 18.1055 63.2537 17.3945C63.2537 17.374 63.2538 17.3525 63.2541 17.3311ZM37.9313 17.3311C37.9313 16.2285 38.257 15.1514 38.8671 14.2363C39.4772 13.3203 40.3442 12.6064 41.3583 12.1865C42.3723 11.7666 43.4877 11.6582 44.563 11.875C45.6384 12.0928 46.6254 12.626 47.3988 13.4072C48.1722 14.1885 48.6973 15.1836 48.9074 16.2646C48.976 16.6182 49.01 16.9746 49.01 17.3311C49.01 18.0664 48.865 18.7979 48.5792 19.4824C48.1552 20.499 47.4402 21.3662 46.5251 21.9736C45.61 22.5811 44.5359 22.9023 43.439 22.8955C42.7115 22.9014 41.9901 22.7617 41.3173 22.4834C40.6444 22.2051 40.0336 21.7949 39.5206 21.2764C39.0076 20.7588 38.6028 20.1426 38.3299 19.4648C38.0662 18.8105 37.9308 18.1113 37.9308 17.4053C37.9308 17.3809 37.931 17.3555 37.9313 17.3311ZM131.836 16.1328L131.836 22.5781L128.671 22.5781L128.671 16.4092C128.671 15.3486 128.175 14.6914 127.173 14.6914C126.17 14.6914 125.537 15.4229 125.537 16.6631L125.537 22.5781L122.372 22.5781L122.372 16.4092C122.372 15.3486 121.876 14.6914 120.874 14.6914C119.871 14.6914 119.238 15.4229 119.238 16.6631L119.238 22.5781L116.073 22.5781L116.073 12.084L119.238 12.084L119.238 13.0488C119.566 12.6221 119.994 12.2852 120.484 12.0664C120.974 11.8486 121.511 11.7559 122.045 11.7979C122.58 11.7695 123.114 11.8818 123.593 12.124C124.072 12.3652 124.48 12.7275 124.778 13.1758C125.125 12.708 125.586 12.3359 126.115 12.0947C126.645 11.8535 127.226 11.752 127.806 11.7979C130.275 11.7979 131.836 13.5146 131.836 16.1328ZM92.7972 17.3311C92.8018 17.4209 92.8041 17.5117 92.8041 17.6016C92.8041 18.209 92.7003 18.8115 92.4963 19.3848C92.2623 20.043 91.9009 20.6484 91.4332 21.165C90.9654 21.6826 90.4005 22.1016 89.7708 22.3984C89.1412 22.6953 88.4593 22.8652 87.7643 22.8965C87.1747 22.9355 86.5837 22.8408 86.0356 22.6182C85.4875 22.3965 84.9965 22.0527 84.599 21.6133L84.599 26.7969L81.4337 26.7969L81.4337 12.084L84.599 12.084L84.599 13.0693C84.997 12.6318 85.4885 12.29 86.0366 12.0693C86.5848 11.8496 87.1754 11.7559 87.7643 11.7979C88.4565 11.8291 89.1357 11.9971 89.7632 12.292C90.3906 12.5869 90.9542 13.0029 91.4215 13.5176C91.8889 14.0312 92.2509 14.6318 92.4869 15.2871C92.696 15.8662 92.8026 16.4775 92.8026 17.0928C92.8026 17.1719 92.8008 17.251 92.7972 17.3311ZM102.43 19.4297C102.43 21.8467 100.32 22.875 98.0834 22.875C97.171 22.957 96.2551 22.7627 95.4538 22.3174C94.6525 21.8711 94.0028 21.1943 93.5886 20.373L96.3108 18.8252C96.4186 19.2041 96.6525 19.5332 96.9732 19.7588C97.2939 19.9844 97.6821 20.0928 98.0728 20.0654C98.822 20.0654 99.2018 19.833 99.2018 19.4082C99.2018 18.2529 94.0634 18.8682 94.0634 15.2324C94.0634 12.9424 95.9837 11.7979 98.1572 11.7979C98.9834 11.7607 99.8042 11.9492 100.532 12.3428C101.261 12.7363 101.869 13.3213 102.293 14.0342L99.5711 15.4756C99.4508 15.2021 99.2543 14.9697 99.0052 14.8066C98.7562 14.6426 98.4653 14.5547 98.1678 14.5537C97.6191 14.5537 97.2921 14.7656 97.2921 15.1367C97.2921 16.3447 102.43 15.5498 102.43 19.4297ZM61.4709 12.084L61.4709 22.0586C61.4709 25.5781 58.7277 27.0723 55.9527 27.0723C54.9739 27.1533 53.9921 26.958 53.1179 26.5078C52.2437 26.0586 51.5116 25.373 51.0042 24.5283L53.6736 22.9805C53.89 23.4189 54.2341 23.7803 54.6601 24.0176C55.0861 24.2539 55.5738 24.3545 56.0582 24.3057C56.3668 24.3438 56.68 24.3135 56.9753 24.2158C57.2708 24.1182 57.541 23.9561 57.7668 23.7412C57.9926 23.5264 58.1684 23.2646 58.2816 22.9736C58.3775 22.7275 58.4265 22.4658 58.4265 22.2021C58.4265 22.1543 58.4249 22.1064 58.4217 22.0586L58.4217 21.0938C58.0533 21.543 57.5859 21.8984 57.0566 22.1348C56.5273 22.3701 55.9507 22.4785 55.3724 22.4512C53.9733 22.4512 52.6313 21.8926 51.642 20.8984C50.6526 19.9043 50.0968 18.5566 50.0968 17.1504C50.0968 15.7451 50.6526 14.3975 51.642 13.4033C52.6313 12.4092 53.9733 11.8506 55.3724 11.8506C55.9507 11.8232 56.5273 11.9316 57.0566 12.167C57.5859 12.4023 58.0533 12.7588 58.4217 13.208L58.4217 12.1475L61.4709 12.084ZM76.0843 12.084L79.2496 12.084L79.2496 22.5781L76.0843 22.5781L76.0843 12.084ZM113.899 12.084L113.899 22.5781L110.734 22.5781L110.734 21.5918C110.375 22.0283 109.918 22.374 109.401 22.6006C108.884 22.8271 108.322 22.9277 107.759 22.8965C105.648 22.8965 103.844 21.3799 103.844 18.5498L103.844 12.084L107.01 12.084L107.01 18.0732C107.004 18.1309 107.001 18.1885 107.001 18.2461C107.001 18.4385 107.033 18.6309 107.096 18.8145C107.178 19.0518 107.31 19.2686 107.484 19.4502C107.657 19.6318 107.868 19.7734 108.101 19.8652C108.335 19.9561 108.585 19.9961 108.835 19.9814C109.974 19.9814 110.776 19.3027 110.776 17.8613L110.776 12.084L113.899 12.084ZM58.4217 17.1191C58.4232 17.084 58.4239 17.0479 58.4239 17.0127C58.4239 16.542 58.2938 16.0801 58.0472 15.6777C57.782 15.2461 57.3943 14.9033 56.9338 14.6943C56.4733 14.4854 55.9612 14.4199 55.4633 14.5059C54.9653 14.5918 54.5043 14.8252 54.1395 15.1758C53.7747 15.5273 53.5229 15.9805 53.4163 16.4766C53.3782 16.6533 53.3593 16.833 53.3593 17.0127C53.3593 17.3359 53.4205 17.6572 53.5415 17.96C53.7297 18.4316 54.0538 18.835 54.4722 19.1201C54.8906 19.4043 55.3842 19.5566 55.8894 19.5566C56.2191 19.5811 56.55 19.5352 56.861 19.4219C57.1719 19.3096 57.4559 19.1328 57.6945 18.9033C57.9332 18.6729 58.1212 18.3955 58.2465 18.0889C58.3629 17.8027 58.4227 17.4971 58.4227 17.1885C58.4227 17.165 58.4224 17.1426 58.4217 17.1191ZM89.6319 17.3311C89.6194 16.8389 89.4626 16.3613 89.1811 15.958C88.8995 15.5547 88.5058 15.2441 88.0493 15.0645C87.5927 14.8857 87.0936 14.8457 86.6145 14.9502C86.1355 15.0547 85.6978 15.2988 85.3563 15.6523C85.0148 16.0049 84.7847 16.4521 84.6948 16.9355C84.6666 17.0879 84.6526 17.2412 84.6526 17.3945C84.6526 17.7295 84.7195 18.0625 84.8511 18.373C85.0429 18.8262 85.3636 19.2129 85.7729 19.4834C86.1823 19.7549 86.6622 19.8984 87.1524 19.8965C87.4882 19.9102 87.8231 19.8535 88.1354 19.7285C88.4476 19.6035 88.7301 19.4141 88.9642 19.1719C89.1983 18.9297 89.3788 18.6406 89.4939 18.3232C89.5894 18.0596 89.6381 17.7822 89.6381 17.5029C89.6381 17.4453 89.636 17.3887 89.6319 17.3311ZM45.8658 17.3311C45.8533 16.8555 45.7017 16.3955 45.4299 16.0059C45.1581 15.6172 44.7783 15.3174 44.3377 15.1436C43.8972 14.9707 43.4156 14.9316 42.9532 15.0322C42.4908 15.1328 42.0681 15.3672 41.738 15.708C41.4078 16.0488 41.1849 16.4785 41.0971 16.9463C41.0692 17.0947 41.0553 17.2451 41.0553 17.3945C41.0553 17.7158 41.119 18.0352 41.2443 18.334C41.4281 18.7715 41.7363 19.1455 42.1304 19.4082C42.5245 19.6709 42.9871 19.8115 43.4601 19.8115C43.7822 19.8174 44.1021 19.7568 44.3999 19.6338C44.6976 19.5098 44.9669 19.3262 45.1906 19.0938C45.4144 18.8604 45.588 18.584 45.7006 18.2803C45.7983 18.0176 45.8481 17.7393 45.8481 17.459C45.8481 17.416 45.847 17.373 45.8447 17.3311L45.8658 17.3311ZM71.1885 17.3311C71.176 16.8555 71.0242 16.3945 70.7519 16.0049C70.4796 15.6162 70.0991 15.3164 69.658 15.1426C69.2169 14.9697 68.7347 14.9316 68.272 15.0332C67.8094 15.1338 67.3867 15.3701 67.057 15.7119C66.7273 16.0537 66.5052 16.4844 66.4186 16.9521C66.3915 17.0986 66.3781 17.2471 66.3781 17.3945C66.3781 17.7188 66.4427 18.04 66.5701 18.3408C66.7555 18.7783 67.0654 19.1514 67.4609 19.4131C67.8564 19.6748 68.3199 19.8135 68.7934 19.8115C69.1155 19.8174 69.4354 19.7568 69.7332 19.6338C70.0309 19.5098 70.3001 19.3262 70.5239 19.0938C70.7477 18.8604 70.9213 18.584 71.0338 18.2803C71.1315 18.0176 71.1814 17.7393 71.1814 17.459C71.1814 17.416 71.1803 17.373 71.178 17.3311L71.1885 17.3311Z" fill="#1D2130" fill-opacity="1.000000" fill-rule="evenodd"/>
	</g>
</svg>
