<svg width="125.322876" height="28.477539" viewBox="0 0 125.323 28.4775" fill="none" xmlns="http://www.w3.org/2000/svg" xmlns:xlink="http://www.w3.org/1999/xlink">
	<desc>
			Created with Pixso.
	</desc>
	<defs/>
	<g opacity="0.600000">
		<path id="Logo" d="M25.3322 5.21973C26.1948 6.24023 26.9054 7.37891 27.4424 8.60059C28.2245 10.3818 28.6269 12.3057 28.6241 14.25C28.6213 18.0186 27.1171 21.6328 24.441 24.2998C21.765 26.9668 18.1356 28.4688 14.3484 28.4775C12.5137 28.4766 10.6967 28.1191 8.99896 27.4268C7.78809 26.9482 6.65137 26.3018 5.62262 25.5059C4.01935 24.29 2.69299 22.75 1.7309 20.9873C0.768799 19.2246 0.192749 17.2783 0.0407104 15.2783C-0.111389 13.2783 0.16394 11.2686 0.848572 9.38184C1.53314 7.49512 2.61151 5.77344 4.0127 4.33203C5.41388 2.88965 7.10608 1.75879 8.97791 1.01465C10.8497 0.270508 12.8588 -0.0712891 14.8728 0.0126953C16.8868 0.0966797 18.8601 0.603516 20.6629 1.50098C22.4656 2.39844 24.057 3.66602 25.3322 5.21973ZM19.107 3.94922C17.6132 3.25781 15.9855 2.89941 14.3378 2.89941L14.3484 2.87793C12.4261 2.87695 10.5348 3.35938 8.85028 4.28125C7.16577 5.20215 5.74292 6.5332 4.71411 8.14941C3.6853 9.76465 3.08398 11.6133 2.96613 13.5225C2.84827 15.4326 3.21765 17.3398 4.03992 19.0693C4.51654 18.5713 4.81024 17.9277 4.87347 17.2422C5.0603 15.958 5.65961 14.7676 6.58191 13.8496C7.50415 12.9316 8.69995 12.3359 9.99078 12.1494C10.7164 12.084 11.397 11.7715 11.918 11.2646C12.4388 10.7578 12.7681 10.0879 12.8502 9.36719C13.037 8.08301 13.6363 6.89258 14.5585 5.97461C15.4808 5.05664 16.6766 4.46094 17.9675 4.27441C18.3597 4.21484 18.7427 4.10547 19.107 3.94922ZM5.99188 21.2529C5.8653 21.3789 5.73865 21.4844 5.61206 21.5996C6.42987 22.5527 7.39941 23.3643 8.48193 24.0039C8.76508 23.5713 8.9422 23.0791 8.99896 22.5654C9.19238 21.2783 9.79785 20.0879 10.7255 19.1699C11.6531 18.2529 12.8533 17.6582 14.1479 17.4736C14.8746 17.4023 15.5541 17.083 16.0714 16.5703C16.5886 16.0566 16.9118 15.3818 16.9862 14.6592C17.1698 13.373 17.768 12.1816 18.6909 11.2627C19.6138 10.3447 20.8113 9.74902 22.1035 9.56641C22.8313 9.49805 23.5096 9.16992 24.0132 8.64258C24.0643 8.59863 24.1103 8.5498 24.1504 8.49609C23.4976 7.38574 22.655 6.39746 21.6603 5.57715C20.7869 6.3916 19.6808 6.91602 18.495 7.07812C17.7668 7.12793 17.0812 7.4375 16.5641 7.9502C16.019 8.48145 15.6918 9.19629 15.6462 9.95508C15.4594 11.2402 14.86 12.4297 13.9378 13.3477C13.0155 14.2656 11.8197 14.8613 10.5289 15.0479C9.80292 15.1064 9.12372 15.4277 8.61914 15.9512C8.09473 16.459 7.76935 17.1367 7.70117 17.8613C7.53314 19.1523 6.9306 20.3477 5.99188 21.2529ZM74.0745 7.91016C73.9036 8.17969 73.8168 8.49219 73.8251 8.81055L73.8251 8.83203C73.8232 9.04297 73.8652 9.25293 73.9485 9.44727C74.0317 9.6416 74.1545 9.81641 74.3091 9.96191C74.4637 10.1064 74.6467 10.2178 74.8467 10.2891C75.0466 10.3604 75.2592 10.3896 75.4711 10.375C75.7908 10.3691 76.1013 10.2686 76.3634 10.0859C76.6255 9.9043 76.8273 9.64844 76.9432 9.35156C77.0593 9.05566 77.0842 8.73145 77.0148 8.4209C76.9456 8.11035 76.7852 7.82715 76.554 7.60742C76.3228 7.3877 76.0312 7.24121 75.7162 7.18652C75.4013 7.13184 75.0771 7.1709 74.7849 7.2998C74.4926 7.42871 74.2454 7.6416 74.0745 7.91016ZM39.4601 8.02344L36.2947 8.02344L36.2947 20.7598L39.4601 20.7598L39.4601 8.02344ZM98.2089 14.124C98.1349 12.1396 96.5417 10.9004 93.9146 10.9004L93.9146 10.9209C91.2979 10.9209 89.5991 12.1494 89.578 14.04C89.578 15.5098 90.5698 16.5068 92.4584 16.8955L94.2838 17.2842C95.0435 17.4414 95.3389 17.5469 95.3389 18.0508C95.3389 18.5547 94.9169 18.8594 93.9884 18.8594C93.0599 18.8594 92.4901 18.4395 92.3951 17.7256L89.3459 17.7256C89.483 19.6885 91.2451 20.9697 93.9356 20.9697C96.6262 20.9697 98.4515 19.6885 98.4515 17.6934C98.4515 16.2344 97.6285 15.457 95.6976 15.0479L93.6719 14.6377C92.9649 14.4912 92.6167 14.334 92.6167 13.8398C92.6167 13.3467 93.0071 13.0107 93.8829 13.0107C94.7586 13.0107 95.3284 13.4414 95.3284 14.124L98.2089 14.124ZM67.6738 10.9111C64.6773 10.9111 62.7359 12.79 62.7359 15.9404L62.7359 15.9502C62.7359 19.1533 64.6246 20.9805 67.6738 20.9805C70.7231 20.9805 72.6223 19.0898 72.6223 15.9404C72.6223 12.79 70.6703 10.9111 67.6738 10.9111ZM113.603 11.0996L110.543 11.0996L110.49 20.7598L113.656 20.7598L113.656 15.0791C113.632 14.8818 113.65 14.6816 113.71 14.4912C113.77 14.3018 113.869 14.127 114.002 13.9775C114.134 13.8291 114.297 13.71 114.479 13.6279C114.661 13.5469 114.859 13.5039 115.059 13.5039C115.924 13.5039 116.399 14.0293 116.399 14.9951L116.399 20.7598L119.406 20.7598L119.406 15.0586C119.38 14.8633 119.397 14.665 119.455 14.4766C119.513 14.2891 119.611 14.1152 119.742 13.9678C119.873 13.8203 120.034 13.7031 120.214 13.623C120.395 13.543 120.591 13.5029 120.788 13.5039C121.675 13.5039 122.149 13.9873 122.149 15.0371L122.149 20.7598L125.315 20.7598L125.315 14.1973C125.346 13.7695 125.287 13.3408 125.14 12.9375C124.994 12.5342 124.764 12.166 124.466 11.8574C124.167 11.5479 123.807 11.3057 123.408 11.1436C123.009 10.9824 122.58 10.9072 122.149 10.9209C121.49 10.8926 120.839 11.084 120.3 11.4639C119.762 11.8447 119.365 12.3926 119.174 13.0215L119.111 13.0215C119.009 12.3984 118.676 11.8369 118.178 11.4482C117.679 11.0586 117.052 10.8711 116.42 10.9209C115.799 10.9102 115.192 11.1035 114.694 11.4717C114.196 11.8408 113.834 12.3633 113.666 12.958L113.603 12.958L113.603 11.0996ZM45.6536 10.9209C42.6571 10.9209 40.7157 12.8008 40.7157 15.9502C40.7157 19.1533 42.6149 20.9902 45.6536 20.9902C48.6923 20.9902 50.5916 19.1006 50.5916 15.9502C50.5916 12.8008 48.6501 10.9209 45.6536 10.9209ZM84.6718 20.8857C87.0774 20.8857 88.4807 19.0898 88.4807 15.9404L88.5229 15.9609C88.5229 12.8115 87.0774 11.0049 84.6506 10.9629C84.0291 10.9355 83.4141 11.0996 82.8892 11.4316C82.3644 11.7646 81.9553 12.25 81.7174 12.8213L81.6541 12.8213L81.6541 11.0996L78.4888 11.0996L78.4888 23.8467L81.6541 23.8467L81.6541 19.1006L81.7174 19.1006C81.9669 19.6631 82.384 20.1367 82.9124 20.4561C83.4407 20.7754 84.0549 20.9248 84.6718 20.8857ZM54.8226 21.3789L51.7838 21.3789L51.7838 21.3896C51.9632 23.1328 53.7041 24.3818 56.5002 24.3818C59.5073 24.3818 61.5436 22.9541 61.5436 20.6543L61.5436 11.0996L58.3783 11.0996L58.3783 12.8535C58.14 12.2861 57.7334 11.8057 57.213 11.4756C56.6924 11.1455 56.083 10.9814 55.4662 11.0049C53.0394 11.0049 51.5834 12.9053 51.5834 15.9189C51.5834 18.9326 53.1133 20.6865 55.424 20.6865C56.022 20.7188 56.6161 20.5713 57.1296 20.2646C57.643 19.958 58.0522 19.5049 58.3044 18.9639L58.3677 18.9639L58.3677 20.7285C58.3677 21.6729 57.7347 22.3242 56.5319 22.3242C56.1827 22.3711 55.8276 22.3037 55.5197 22.1338C55.2117 21.9639 54.9672 21.6992 54.8226 21.3789ZM105.964 20.7383L109.013 20.7383L109.055 11.0996L105.89 11.0996L105.89 16.5391C105.92 16.7656 105.901 16.9961 105.834 17.2158C105.767 17.4346 105.654 17.6367 105.502 17.8086C105.35 17.9814 105.163 18.1191 104.954 18.2129C104.744 18.3076 104.516 18.3555 104.286 18.3555C103.305 18.3555 102.714 17.7461 102.714 16.6016L102.714 11.0996L99.5488 11.0996L99.5488 17.3262C99.5088 17.8037 99.5723 18.2842 99.7349 18.7354C99.8976 19.1865 100.156 19.5977 100.492 19.9414C100.828 20.2852 101.234 20.5527 101.683 20.7266C102.132 20.9004 102.613 20.9756 103.094 20.9482C103.722 20.9834 104.342 20.8037 104.853 20.4385C105.363 20.0732 105.733 19.5459 105.901 18.9434L105.964 18.9434L105.964 20.7383ZM76.9905 11.1211L73.8251 11.1211L73.8251 20.7598L76.9905 20.7598L76.9905 11.1211ZM11.1725 25.2119C12.2017 25.5059 13.2672 25.6543 14.3378 25.6523L14.3378 25.6006C16.0815 25.5938 17.8004 25.1895 19.3627 24.4189C20.9251 23.6484 22.2893 22.5322 23.3508 21.1553C24.4122 19.7783 25.1427 18.1787 25.4861 16.4775C25.8296 14.7764 25.7769 13.0186 25.3322 11.3408C24.5311 11.9053 23.6039 12.2656 22.631 12.3916C21.9063 12.4648 21.2292 12.7852 20.7141 13.2979C20.199 13.8105 19.8773 14.4844 19.8033 15.2051C19.6159 16.4912 19.0151 17.6826 18.0908 18.6006C17.1664 19.5186 15.9682 20.1143 14.6755 20.2979C13.9507 20.3711 13.2737 20.6914 12.7585 21.2041C12.2434 21.7168 11.9218 22.3906 11.8478 23.1113C11.7534 23.8467 11.5245 24.5586 11.1725 25.2119ZM67.6738 13.1895C68.7501 13.1895 69.4359 14.208 69.4359 15.9404L69.4359 15.9609C69.4359 17.7148 68.7922 18.6914 67.7161 18.6914C66.6398 18.6914 65.9751 17.6729 65.9751 15.9609C65.9751 14.25 66.5977 13.1895 67.6738 13.1895ZM45.6536 13.1992C46.7298 13.1992 47.4156 14.2178 47.4156 15.9502L47.4156 15.9609C47.4156 17.7148 46.7404 18.6807 45.6536 18.6807C44.5668 18.6807 43.9021 17.6514 43.9021 15.9502C43.9021 14.25 44.5774 13.1992 45.6536 13.1992ZM83.5005 13.4307C84.6084 13.4307 85.3154 14.4072 85.3154 15.9404L85.3154 15.9609C85.3154 17.4834 84.6084 18.4395 83.5005 18.4395C82.3927 18.4395 81.6647 17.4629 81.6752 15.9404C81.6857 14.418 82.3927 13.4307 83.5005 13.4307ZM56.5529 13.4414C57.6713 13.4414 58.3783 14.4072 58.3783 15.9404L58.3783 15.9502C58.3783 17.5049 57.6819 18.3555 56.5529 18.3555C55.424 18.3555 54.7487 17.4834 54.7487 15.9404C54.7487 14.3965 55.4345 13.4414 56.5529 13.4414Z" fill="#1D2130" fill-opacity="1.000000" fill-rule="evenodd"/>
	</g>
</svg>
