<svg width="142.358154" height="27.999023" viewBox="0 0 142.358 27.999" fill="none" xmlns="http://www.w3.org/2000/svg" xmlns:xlink="http://www.w3.org/1999/xlink">
	<desc>
			Created with Pixso.
	</desc>
	<defs/>
	<g opacity="0.600000">
		<path id="Logo" d="M7.47205 14.2939C7.28247 14.8252 6.97791 15.3086 6.5802 15.709L6.58228 15.709C6.12463 16.1689 5.55835 16.5049 4.93616 16.6875C4.31384 16.8701 3.65552 16.8926 3.02234 16.7529C2.38904 16.6133 1.80139 16.3154 1.3136 15.8877C0.825928 15.46 0.453979 14.916 0.232178 14.3066C0.078125 13.8828 0 13.4365 0 12.9893C0 12.792 0.0150146 12.5957 0.045166 12.4004C0.144287 11.7588 0.403442 11.1533 0.798828 10.6387C1.19421 10.125 1.71289 9.71875 2.30688 9.45801C2.90088 9.19824 3.5509 9.0918 4.19678 9.14941L4.17786 9.13086C4.83887 9.18652 5.50415 9.09766 6.1272 8.86914C6.75012 8.6416 7.31592 8.28027 7.78503 7.81055C8.25415 7.3418 8.61511 6.77539 8.84302 6.15234C9.02673 5.64941 9.12036 5.11914 9.12036 4.58594C9.12036 4.45801 9.11499 4.33008 9.10413 4.20215L9.12305 4.2207C9.11182 4.10059 9.1062 3.98047 9.1062 3.86035C9.1062 3.19141 9.2804 2.53125 9.61438 1.94629C10.0082 1.25586 10.6051 0.705078 11.3236 0.367188C12.0421 0.0292969 12.8473 -0.0791016 13.6294 0.0576172C14.4115 0.194336 15.1324 0.569336 15.6938 1.13086C16.2552 1.69238 16.6299 2.41406 16.7665 3.19629C16.8051 3.41699 16.8241 3.63867 16.8241 3.86035C16.8241 4.42578 16.7001 4.9873 16.4575 5.50293C16.1198 6.22168 15.5686 6.81934 14.8793 7.21289C14.1898 7.60742 13.3958 7.7793 12.6052 7.70508L12.6251 7.72363C11.964 7.66797 11.2986 7.75684 10.6753 7.98438C10.052 8.21191 9.48596 8.57324 9.0166 9.04297C8.54724 9.51172 8.18604 10.0781 7.95813 10.7021C7.77417 11.2051 7.68066 11.7354 7.68066 12.2686C7.68066 12.3965 7.68604 12.5244 7.69678 12.6523L7.67688 12.6338C7.68896 12.7578 7.69495 12.8818 7.69495 13.0059C7.69495 13.4434 7.61987 13.8799 7.47205 14.2939ZM13.5938 17.7979L13.6138 17.8164C12.9528 17.7607 12.2875 17.8496 11.6644 18.0781C11.0415 18.3057 10.4757 18.667 10.0066 19.1357C9.53748 19.6055 9.17651 20.1719 8.94861 20.7949C8.76489 21.2979 8.67126 21.8281 8.67126 22.3613C8.67126 22.4893 8.67664 22.6172 8.6875 22.7451L8.66748 22.7266C8.67883 22.8467 8.68445 22.9668 8.68445 23.0869C8.68445 23.7568 8.51038 24.417 8.17651 25.002C7.78259 25.6924 7.18567 26.2441 6.46692 26.582C5.74817 26.9199 4.94263 27.0283 4.16016 26.8916C3.37781 26.7549 2.65662 26.3799 2.09497 25.8184C1.53345 25.2559 1.15869 24.5342 1.02197 23.752C0.983521 23.5312 0.964478 23.3086 0.964478 23.0869C0.964478 22.5215 1.0885 21.9609 1.3313 21.4443C1.66931 20.7246 2.2207 20.1279 2.9104 19.7334C3.6001 19.3398 4.39453 19.168 5.1853 19.2422L5.1665 19.2236C5.82739 19.2793 6.49255 19.1895 7.11548 18.9619C7.7384 18.7334 8.3042 18.3721 8.77319 17.9033C9.24219 17.4336 9.60327 16.8682 9.83118 16.2451C10.0151 15.7412 10.1088 15.2109 10.1088 14.6768C10.1088 14.5498 10.1034 14.4219 10.0928 14.2949L10.1116 14.3135C10.099 14.1875 10.0927 14.0605 10.0927 13.9346C10.0927 13.498 10.1675 13.0645 10.3147 12.6514C10.5046 12.1201 10.8104 11.6367 11.2098 11.2373C11.6093 10.8379 12.0924 10.5322 12.6243 10.3428C13.1562 10.1533 13.7236 10.084 14.2854 10.1406L14.2665 10.1211C14.9276 10.1768 15.5929 10.0879 16.2159 9.86035C16.8391 9.63184 17.4049 9.27051 17.874 8.80176C18.3431 8.33203 18.7042 7.76562 18.932 7.14258C19.1156 6.63965 19.2091 6.11035 19.2091 5.57715C19.2091 5.44922 19.2036 5.32031 19.1927 5.19238L19.2117 5.21191C19.2004 5.0918 19.1948 4.97168 19.1948 4.85059C19.1948 4.18164 19.3689 3.52148 19.7028 2.93652C20.0966 2.24609 20.6936 1.69434 21.4124 1.35645C22.1311 1.01855 22.9366 0.910156 23.719 1.04688C24.5015 1.18359 25.2225 1.55859 25.7842 2.12012C26.3458 2.68262 26.7206 3.40332 26.8572 4.18652C26.8958 4.40723 26.9148 4.62891 26.9148 4.85059C26.9148 5.41602 26.7906 5.97754 26.5479 6.49414C26.21 7.21387 25.6586 7.81055 24.9688 8.20508C24.2791 8.59863 23.4846 8.77051 22.6938 8.69629L22.7139 8.71484C22.0529 8.65918 21.3876 8.74805 20.7645 8.97656C20.1415 9.2041 19.5757 9.56543 19.1067 10.0352C18.6376 10.5039 18.2765 11.0703 18.0487 11.6934C17.8649 12.1963 17.7714 12.7266 17.7714 13.2598C17.7714 13.3877 17.7767 13.5156 17.7876 13.6436L17.7676 13.625C17.7803 13.751 17.7865 13.8779 17.7865 14.0039C17.7865 14.4404 17.7117 14.874 17.5645 15.2861C17.3745 15.8184 17.0688 16.3018 16.6694 16.7012C16.2699 17.1006 15.7869 17.4062 15.2549 17.5957C14.723 17.7852 14.1556 17.8545 13.5938 17.7979ZM39.09 5.23633L42.2069 5.23633L42.2069 20.4121L39.09 20.4121L39.09 5.23633ZM140.045 9.9541C138.768 9.9541 137.732 8.91797 137.732 7.63965C137.732 6.36133 138.768 5.3252 140.045 5.3252C141.323 5.3252 142.358 6.36133 142.358 7.63965C142.358 8.91797 141.323 9.9541 140.045 9.9541ZM81.6401 7.23242C81.6401 6.8623 81.7499 6.50098 81.9553 6.19238C82.1609 5.88477 82.4529 5.64551 82.7947 5.50391C83.1364 5.3623 83.5125 5.3252 83.8752 5.39746C84.238 5.46973 84.5712 5.64746 84.8328 5.90918C85.0944 6.1709 85.2725 6.50391 85.3446 6.86719C85.3687 6.98828 85.3805 7.11035 85.3805 7.23242C85.3805 7.47656 85.3326 7.7207 85.2382 7.94824C85.0967 8.29004 84.8569 8.58203 84.5493 8.78809C84.2418 8.99414 83.8802 9.10352 83.5104 9.10352C83.0159 9.09863 82.543 8.89941 82.1934 8.5498C81.8438 8.2002 81.6451 7.72754 81.6401 7.23242ZM43.9722 15.2158L43.9722 15.1934C43.9722 14.1104 44.2911 13.0518 44.8895 12.1484C45.4919 11.2402 46.3503 10.5303 47.3562 10.1094C48.3621 9.68945 49.47 9.57715 50.5396 9.78711C51.6091 9.99707 52.5924 10.5205 53.3647 11.29C54.1371 12.0596 54.6637 13.041 54.8779 14.1104C54.9498 14.4688 54.9855 14.8311 54.9855 15.1934C54.9855 15.9111 54.8451 16.626 54.5684 17.2969C54.1522 18.3047 53.4464 19.166 52.5404 19.7725C51.6344 20.3789 50.5688 20.7031 49.4789 20.7031C48.7552 20.7109 48.0374 20.5752 47.3669 20.3027C46.6965 20.0303 46.0872 19.626 45.5745 19.1152C45.0618 18.6045 44.656 17.9961 44.3809 17.3271C44.1108 16.6699 43.972 15.9658 43.972 15.2559Q43.972 15.2354 43.9722 15.2158ZM69.1733 15.2158L69.1733 15.1934C69.1733 14.1104 69.4923 13.0518 70.0907 12.1484C70.6931 11.2402 71.5515 10.5303 72.5574 10.1094C73.5632 9.68945 74.6711 9.57715 75.7407 9.78711C76.8103 9.99707 77.7936 10.5205 78.5659 11.29C79.3383 12.0596 79.8649 13.041 80.0791 14.1104C80.151 14.4688 80.1866 14.8311 80.1866 15.1934C80.1866 15.9111 80.0463 16.626 79.7695 17.2969C79.3534 18.3047 78.6476 19.166 77.7416 19.7725C76.8356 20.3789 75.77 20.7031 74.6799 20.7031C73.9564 20.7109 73.2385 20.5752 72.5681 20.3027C71.8977 20.0303 71.2883 19.626 70.7756 19.1152C70.2629 18.6045 69.8572 17.9961 69.582 17.3271C69.312 16.6699 69.1732 15.9658 69.1732 15.2559C69.1732 15.2422 69.1732 15.2285 69.1733 15.2158ZM137.409 14.0303L137.409 20.4121L134.292 20.4121L134.292 14.2998C134.292 13.2607 133.793 12.5957 132.796 12.5957C131.757 12.5957 131.175 13.3232 131.175 14.5498L131.175 20.4121L128.059 20.4121L128.059 14.2998C128.059 13.2607 127.56 12.5957 126.562 12.5957C125.523 12.5957 124.942 13.3232 124.942 14.5498L124.942 20.4121L121.825 20.4121L121.825 10.0166L124.942 10.0166L124.942 10.9727C125.265 10.5488 125.689 10.2129 126.176 9.99512C126.662 9.77734 127.195 9.68457 127.726 9.72656C128.26 9.7002 128.791 9.8125 129.268 10.0527C129.745 10.293 130.151 10.6533 130.448 11.0977C130.793 10.6328 131.25 10.2627 131.777 10.0234C132.304 9.7832 132.884 9.68164 133.461 9.72656C135.846 9.72754 137.409 11.4316 137.409 14.0303ZM67.4082 10.0176L67.4082 19.8877C67.4082 23.3799 64.6858 24.8564 61.9225 24.8564C60.9496 24.9297 59.9753 24.7324 59.1068 24.2881C58.2382 23.8438 57.5087 23.1689 56.9983 22.3369L59.6577 20.7988C59.8722 21.2324 60.214 21.5898 60.6373 21.8242C61.0607 22.0576 61.5453 22.1572 62.0264 22.1074C62.3339 22.1504 62.647 22.123 62.9426 22.0283C63.2383 21.9336 63.5088 21.7734 63.7343 21.5596C63.9596 21.3467 64.1342 21.085 64.245 20.7949C64.3352 20.5586 64.3812 20.3076 64.3812 20.0557C64.3812 19.998 64.3789 19.9414 64.3741 19.8838L64.3741 18.9336C64.0092 19.3809 63.5446 19.7354 63.0176 19.9697C62.4907 20.2051 61.9161 20.3125 61.3401 20.2852C59.9692 20.2412 58.6689 19.666 57.7146 18.6807C56.7603 17.6953 56.2266 16.377 56.2266 15.0049C56.2266 13.6328 56.7603 12.3145 57.7146 11.3291C58.6689 10.3438 59.9692 9.76855 61.3401 9.72461C61.9161 9.69727 62.4907 9.80566 63.0176 10.04C63.5446 10.2744 64.0092 10.6299 64.3741 11.0762L64.3741 10.0156L67.4082 10.0176ZM98.5316 15.2158C98.5364 15.3066 98.5388 15.3975 98.5388 15.4893C98.5388 16.084 98.437 16.6758 98.2372 17.2383C98.0068 17.8857 97.6506 18.4824 97.1891 18.9922C96.7275 19.502 96.1698 19.916 95.548 20.209C94.9261 20.5029 94.2523 20.6709 93.5656 20.7031C92.9879 20.7344 92.4105 20.6367 91.8752 20.417C91.3398 20.1982 90.8601 19.8623 90.4706 19.4346L90.4706 24.5703L87.3536 24.5703L87.3536 10.0176L90.4706 10.0176L90.4706 10.9941C90.8604 10.5674 91.3401 10.2314 91.8754 10.0117C92.4106 9.79297 92.988 9.69531 93.5656 9.72754C94.2524 9.75879 94.9264 9.92676 95.5483 10.2207C96.1704 10.5137 96.7281 10.9277 97.1898 11.4375C97.6514 11.9482 98.0074 12.5439 98.2378 13.1924C98.4373 13.7539 98.5389 14.3457 98.5389 14.9404C98.5389 15.0322 98.5365 15.124 98.5316 15.2158ZM108.15 17.2939C108.15 19.6846 106.073 20.7031 103.829 20.7031C102.923 20.7852 102.012 20.5928 101.216 20.1523C100.42 19.7109 99.7737 19.041 99.3618 18.2295L102.062 16.6904C102.171 17.0664 102.406 17.3926 102.727 17.6162C103.048 17.8389 103.435 17.9453 103.825 17.917C104.573 17.917 104.947 17.6885 104.947 17.2734C104.947 16.1289 99.8351 16.7324 99.8351 13.1367C99.8351 10.8691 101.747 9.72754 103.908 9.72754C104.72 9.70117 105.525 9.89453 106.237 10.2852C106.95 10.6768 107.544 11.252 107.959 11.9512L105.3 13.3857C105.183 13.1133 104.989 12.8809 104.742 12.7188C104.494 12.5557 104.204 12.4697 103.908 12.4707C103.368 12.4707 103.035 12.6807 103.035 13.0527C103.039 14.2383 108.15 13.4473 108.15 17.2939ZM81.9551 10.0176L85.073 10.0176L85.073 20.4131L81.9508 20.4131L81.9551 10.0176ZM119.536 10.0176L119.536 20.4131L116.419 20.4131L116.419 19.4355C116.059 19.8672 115.603 20.207 115.087 20.4268C114.57 20.6475 114.009 20.7422 113.449 20.7041C111.35 20.7041 109.566 19.208 109.566 16.3984L109.566 10.0176L112.683 10.0176L112.683 15.9424C112.677 16.002 112.673 16.0615 112.673 16.1221C112.673 16.3096 112.704 16.4971 112.765 16.6758C112.846 16.9111 112.977 17.126 113.149 17.3066C113.321 17.4863 113.53 17.626 113.761 17.7168C113.993 17.8076 114.242 17.8477 114.49 17.832C115.633 17.832 116.422 17.167 116.422 15.6914L116.422 10.0215L119.536 10.0176ZM20.4637 13.7031C20.6536 13.1719 20.9581 12.6885 21.3558 12.2881L21.359 12.2881C21.8167 11.8281 22.3829 11.4922 23.0052 11.3096C23.6276 11.127 24.2859 11.1045 24.9192 11.2441C25.5524 11.3848 26.1401 11.6816 26.6278 12.1094C27.1155 12.5371 27.4874 13.0811 27.7091 13.6914C27.8632 14.1143 27.9412 14.5605 27.9412 15.0088C27.9412 15.2051 27.926 15.4023 27.8959 15.5977C27.7966 16.2393 27.5374 16.8447 27.1418 17.3594C26.7463 17.873 26.2275 18.2793 25.6335 18.5391C25.0394 18.7998 24.3893 18.9053 23.7434 18.8477L23.7633 18.8662C23.1023 18.8105 22.4371 18.8994 21.8141 19.1279C21.191 19.3555 20.6252 19.7168 20.1561 20.1865C19.6871 20.6553 19.326 21.2217 19.0983 21.8447C18.9144 22.3477 18.8209 22.8779 18.8209 23.4111C18.8209 23.5391 18.8263 23.667 18.837 23.7949L18.8171 23.7764C18.8285 23.8965 18.8341 24.0176 18.8341 24.1377C18.8341 24.8066 18.6602 25.4668 18.3264 26.0518C17.9327 26.7422 17.3359 27.2939 16.6174 27.6318C15.8988 27.9707 15.0935 28.0781 14.3112 27.9424C13.5288 27.8057 12.8076 27.4307 12.2458 26.8691C11.6841 26.3076 11.3091 25.5869 11.172 24.8047C11.1333 24.583 11.114 24.3604 11.114 24.1377C11.114 23.5732 11.2378 23.0127 11.4799 22.4961C11.8173 21.7773 12.3683 21.1797 13.0576 20.7852C13.7469 20.3906 14.5411 20.2188 15.3318 20.292L15.3129 20.2734C15.9739 20.3291 16.6392 20.2402 17.2622 20.0117C17.8851 19.7842 18.4509 19.4229 18.92 18.9531C19.3892 18.4844 19.7501 17.918 19.978 17.2949C20.1617 16.792 20.2554 16.2617 20.2554 15.7285C20.2554 15.6006 20.25 15.4727 20.2391 15.3447L20.2581 15.3633C20.2462 15.2402 20.2402 15.1172 20.2402 14.9941C20.2402 14.5557 20.3156 14.1182 20.4637 13.7031ZM64.3751 15.0068C64.3766 14.9717 64.3773 14.9365 64.3773 14.9014C64.3773 14.4346 64.2478 13.9766 64.0023 13.5781C63.7383 13.1504 63.3523 12.8115 62.894 12.6045C62.4357 12.3975 61.926 12.333 61.4305 12.418C60.9351 12.5039 60.4766 12.7354 60.1139 13.084C59.7513 13.4326 59.5012 13.8818 59.3958 14.373C59.3584 14.5479 59.3398 14.7246 59.3398 14.9014C59.3398 15.2227 59.4012 15.543 59.5225 15.8438C59.7104 16.3105 60.0337 16.71 60.4506 16.9912C60.8674 17.2725 61.3589 17.4219 61.8616 17.4219C62.1891 17.4443 62.5178 17.3984 62.8264 17.2861C63.135 17.1748 63.4169 16.999 63.6537 16.7715C63.8904 16.5439 64.0769 16.2695 64.2012 15.9658C64.3168 15.6826 64.3761 15.3799 64.3761 15.0752C64.3761 15.0527 64.3759 15.0293 64.3751 15.0068ZM95.4147 15.2158C95.4025 14.7285 95.2472 14.2568 94.9681 13.8584C94.6891 13.46 94.2988 13.1523 93.8459 12.9746C93.3932 12.7969 92.8981 12.7568 92.4225 12.8594C91.947 12.9619 91.5122 13.2021 91.1726 13.5508C90.833 13.8984 90.6038 14.3398 90.5134 14.8174C90.4846 14.9697 90.4703 15.124 90.4703 15.2773C90.4703 15.6064 90.5358 15.9326 90.6646 16.2383C90.8535 16.6865 91.1705 17.0693 91.5758 17.3389C91.9812 17.6074 92.4568 17.751 92.9431 17.751C93.2771 17.7656 93.6104 17.71 93.9213 17.5869C94.2321 17.4639 94.5133 17.2764 94.7467 17.0371C94.9801 16.7979 95.1603 16.5117 95.2754 16.1982C95.3715 15.9355 95.4204 15.6592 95.4204 15.3809C95.4204 15.3252 95.4186 15.2705 95.4147 15.2158ZM51.8685 15.2158C51.8555 14.7451 51.7043 14.29 51.4337 13.9053C51.1632 13.5205 50.7854 13.2246 50.3475 13.0537C49.9097 12.8828 49.4312 12.8447 48.9718 12.9443C48.5125 13.0439 48.0927 13.2764 47.7649 13.6143C47.4373 13.9512 47.2161 14.377 47.1292 14.8398C47.1017 14.9863 47.088 15.1338 47.088 15.2812C47.088 15.5996 47.1515 15.916 47.2764 16.2119C47.4592 16.6455 47.7657 17.0156 48.1575 17.2754C48.5492 17.5352 49.0088 17.6738 49.4789 17.6738C49.8008 17.6826 50.121 17.624 50.4192 17.5029C50.7175 17.3809 50.9874 17.1992 51.2119 16.9688C51.4364 16.7373 51.6107 16.4629 51.7238 16.1611C51.8219 15.8984 51.8719 15.6211 51.8719 15.3428C51.8719 15.2998 51.8708 15.2578 51.8685 15.2158ZM77.0697 15.2158C77.0566 14.7451 76.9055 14.29 76.6349 13.9053C76.3644 13.5205 75.9866 13.2246 75.5487 13.0537C75.1108 12.8828 74.6323 12.8447 74.173 12.9443C73.7136 13.0439 73.2938 13.2764 72.9661 13.6143C72.6384 13.9512 72.4172 14.377 72.3303 14.8398C72.3029 14.9863 72.2892 15.1338 72.2892 15.2812C72.2892 15.5996 72.3527 15.916 72.4775 16.2119C72.6604 16.6455 72.9669 17.0156 73.3586 17.2754C73.7504 17.5352 74.21 17.6738 74.6799 17.6738C75.0018 17.6826 75.322 17.624 75.6204 17.5029C75.9187 17.3809 76.1886 17.1992 76.4131 16.9688C76.6376 16.7373 76.8119 16.4629 76.9249 16.1611C77.0231 15.8984 77.0731 15.6211 77.0731 15.3428C77.0731 15.2998 77.072 15.2578 77.0697 15.2158Z" fill="#1D2130" fill-opacity="1.000000" fill-rule="evenodd"/>
	</g>
</svg>
