<svg width="137.000000" height="31.000000" viewBox="0 0 137 31" fill="none" xmlns="http://www.w3.org/2000/svg" xmlns:xlink="http://www.w3.org/1999/xlink">
	<desc>
			Created with Pixso.
	</desc>
	<defs/>
	<g opacity="0.600000">
		<path id="Logo" d="M14.1575 4.51172L14.1575 0L0 0L0 31L14.1575 31L14.1575 26.4883C11.2573 26.4883 8.47594 25.3301 6.42522 23.2695C4.3745 21.209 3.22241 18.4141 3.22241 15.5C3.22241 12.5859 4.3745 9.79102 6.42522 7.73047C8.47594 5.66992 11.2573 4.51172 14.1575 4.51172ZM14.1575 4.51172L14.1575 26.4883C17.0576 26.4883 19.8389 25.3301 21.8897 23.2695C23.9404 21.209 25.0925 18.4141 25.0925 15.5C25.0925 12.5859 23.9404 9.79102 21.8897 7.73047C19.8389 5.66992 17.0576 4.51172 14.1575 4.51172ZM33.0376 7.27246L33.0376 22.6133L36.2072 22.6133L36.2072 7.27246L33.0376 7.27246ZM134.676 12.0391C135.959 12.0391 137 10.9932 137 9.70312C137 8.41309 135.959 7.36816 134.676 7.36816C133.392 7.36816 132.351 8.41309 132.351 9.70312C132.351 10.9932 133.392 12.0391 134.676 12.0391ZM76.1968 8.23926C75.9902 8.5498 75.8799 8.91504 75.8799 9.28906C75.8854 9.78906 76.0853 10.2666 76.4368 10.6191C76.7883 10.9727 77.2634 11.1738 77.7605 11.1787C78.1325 11.1787 78.4961 11.0684 78.8053 10.8604C79.1146 10.6533 79.3556 10.3574 79.498 10.0127C79.5929 9.78223 79.6411 9.53613 79.6411 9.28906C79.6411 9.16602 79.6291 9.04297 79.605 8.9209C79.5324 8.55371 79.3533 8.21777 79.0903 7.95312C78.8273 7.68848 78.4922 7.50879 78.1274 7.43555C77.7626 7.36328 77.3845 7.40039 77.0408 7.54297C76.6972 7.68652 76.4035 7.92871 76.1968 8.23926ZM64.2744 14.2598C63.6644 15.1768 63.3389 16.2549 63.3389 17.3574C63.3386 17.3789 63.3385 17.4004 63.3385 17.4219C63.3385 18.1338 63.4757 18.8389 63.7428 19.498C64.0179 20.1777 64.4252 20.7949 64.9408 21.3145C65.4565 21.833 66.0701 22.2441 66.7456 22.5215C67.4212 22.7988 68.1452 22.9385 68.8751 22.9316C69.9726 22.9336 71.046 22.6084 71.9596 21.9971C72.8731 21.3857 73.5857 20.5166 74.0071 19.498C74.2892 18.8164 74.4324 18.0889 74.4324 17.3574C74.4324 16.9971 74.3975 16.6348 74.3271 16.2773C74.1143 15.1953 73.5868 14.2012 72.8115 13.4199C72.0362 12.6396 71.0479 12.1084 69.9716 11.8916C68.8954 11.6758 67.7796 11.7861 66.7654 12.207C65.7513 12.6289 64.8843 13.3438 64.2744 14.2598ZM38.9192 14.2578C38.3083 15.1748 37.9822 16.2539 37.9822 17.3574C37.9819 17.3828 37.9817 17.4072 37.9817 17.4326C37.9817 18.1387 38.1173 18.8398 38.3813 19.4951C38.6545 20.1738 39.0599 20.791 39.5736 21.3096C40.0872 21.8291 40.6989 22.2393 41.3727 22.5186C42.0464 22.7969 42.7688 22.9375 43.4973 22.9316C44.5956 22.9375 45.6712 22.6162 46.5875 22.0078C47.5038 21.3994 48.2197 20.5303 48.6444 19.5127C48.9305 18.8271 49.0757 18.0947 49.0757 17.3574C49.0757 17.001 49.0417 16.6436 48.973 16.29C48.7626 15.207 48.2368 14.2109 47.4623 13.4277C46.6879 12.6455 45.6996 12.1113 44.6228 11.8936C43.546 11.6758 42.4291 11.7842 41.4137 12.2051C40.3983 12.626 39.5301 13.3408 38.9192 14.2578ZM132.013 22.6133L132.013 16.1582C132.013 13.5361 130.449 11.8164 127.977 11.8164C127.397 11.7695 126.814 11.8721 126.284 12.1133C125.754 12.3545 125.293 12.7275 124.945 13.1963C124.647 12.7471 124.238 12.3848 123.758 12.1426C123.279 11.9004 122.745 11.7881 122.209 11.8164C121.673 11.7744 121.136 11.8662 120.646 12.085C120.155 12.3037 119.726 12.6416 119.398 13.0684L119.398 12.1025L116.229 12.1025L116.229 22.6133L119.398 22.6133L119.398 16.6885C119.398 15.4473 120.032 14.7139 121.036 14.7139C122.039 14.7139 122.536 15.3721 122.536 16.4346L122.536 22.6133L125.706 22.6133L125.706 16.6885C125.706 15.4473 126.34 14.7139 127.343 14.7139C128.347 14.7139 128.844 15.3721 128.844 16.4346L128.844 22.6133L132.013 22.6133ZM92.9285 17.6289C92.9285 17.5381 92.9262 17.4482 92.9216 17.3574C92.9252 17.2783 92.927 17.1982 92.927 17.1191C92.927 16.5029 92.8202 15.8906 92.6109 15.3105C92.3746 14.6553 92.012 14.0527 91.5441 13.5381C91.0761 13.0234 90.5118 12.6064 89.8835 12.3115C89.2551 12.0156 88.575 11.8477 87.882 11.8164C87.2923 11.7744 86.7008 11.8672 86.1519 12.0879C85.603 12.3086 85.1109 12.6514 84.7124 13.0898L84.7124 12.1025L81.5428 12.1025L81.5428 26.8379L84.7124 26.8379L84.7124 21.6465C85.1104 22.0869 85.6021 22.4307 86.151 22.6533C86.6998 22.876 87.2915 22.9707 87.882 22.9316C88.5778 22.9004 89.2606 22.7305 89.8911 22.4336C90.5216 22.1357 91.0873 21.7158 91.5557 21.1982C92.0241 20.6797 92.3859 20.0742 92.6204 19.415C92.8245 18.8408 92.9285 18.2363 92.9285 17.6289ZM98.2148 22.9102C100.455 22.9102 102.568 21.8799 102.568 19.46C102.568 15.5742 97.4225 16.3701 97.4225 15.1602C97.4225 14.7891 97.75 14.5762 98.2994 14.5762C98.5973 14.5771 98.8886 14.665 99.138 14.8291C99.3874 14.9932 99.5841 15.2256 99.7046 15.5L102.43 14.0557C102.006 13.3418 101.396 12.7559 100.667 12.3613C99.938 11.9678 99.1161 11.7783 98.2888 11.8164C96.1124 11.8164 94.1895 12.9629 94.1895 15.2559C94.1895 18.8975 99.3348 18.2812 99.3348 19.4385C99.3348 19.8633 98.9544 20.0967 98.2043 20.0967C97.8131 20.124 97.4244 20.0156 97.1032 19.79C96.782 19.5635 96.5479 19.2334 96.4399 18.8545L93.714 20.4043C94.1288 21.2266 94.7794 21.9053 95.5817 22.3516C96.3841 22.7979 97.3013 22.9932 98.2148 22.9102ZM61.5534 22.0928L61.5534 12.1025L58.5 12.166L58.5 13.2275C58.1312 12.7783 57.6631 12.4219 57.1331 12.1855C56.6031 11.9502 56.0257 11.8418 55.4466 11.8691C54.0456 11.8691 52.7019 12.4287 51.7112 13.4238C50.7206 14.4189 50.164 15.7695 50.164 17.1777C50.164 18.585 50.7206 19.9355 51.7112 20.9307C52.7019 21.9258 54.0456 22.4854 55.4466 22.4854C56.0257 22.5127 56.6031 22.4043 57.1331 22.1689C57.6631 21.9326 58.1312 21.5762 58.5 21.127L58.5 22.0928C58.5032 22.1406 58.5048 22.1885 58.5048 22.2363C58.5048 22.5 58.4558 22.7627 58.3598 23.0088C58.2464 23.3008 58.0704 23.5635 57.8442 23.7783C57.6181 23.9932 57.3475 24.1553 57.0517 24.2529C56.756 24.3506 56.4424 24.3818 56.1334 24.3438C55.6483 24.3926 55.16 24.291 54.7334 24.0547C54.3068 23.8174 53.9622 23.4551 53.7456 23.0166L51.0726 24.5664C51.5807 25.4121 52.3137 26.0986 53.1891 26.5488C54.0645 26.999 55.0476 27.1953 56.0277 27.1143C58.8064 27.1143 61.5534 25.6172 61.5534 22.0928ZM79.3559 12.1025L76.1863 12.1025L76.1863 22.6133L79.3559 22.6133L79.3559 12.1025ZM114.052 22.6133L114.052 12.1025L110.925 12.1025L110.925 17.8887C110.925 19.332 110.122 20.0117 108.981 20.0117C108.73 20.0273 108.48 19.9873 108.246 19.8955C108.013 19.8037 107.802 19.6621 107.628 19.4805C107.454 19.2988 107.322 19.0811 107.24 18.8428C107.176 18.6592 107.144 18.4668 107.144 18.2744C107.144 18.2158 107.147 18.1582 107.153 18.1006L107.153 12.1025L103.983 12.1025L103.983 18.5791C103.983 21.4131 105.79 22.9316 107.903 22.9316C108.467 22.9639 109.03 22.8623 109.548 22.6357C110.065 22.4082 110.522 22.0625 110.883 21.626L110.883 22.6133L114.052 22.6133ZM58.5022 17.0391C58.5022 17.0742 58.5015 17.1104 58.5 17.1455C58.5007 17.1689 58.501 17.1924 58.501 17.2148C58.501 17.5244 58.4411 17.8301 58.3245 18.1162C58.1991 18.4238 58.0108 18.7021 57.7719 18.9326C57.5329 19.1621 57.2486 19.3398 56.9372 19.4521C56.6259 19.5654 56.2944 19.6113 55.9643 19.5869C55.4584 19.5869 54.9642 19.4346 54.5452 19.1494C54.1263 18.8643 53.8017 18.46 53.6133 17.9883C53.4922 17.6846 53.4309 17.3623 53.4309 17.0391C53.4309 16.8594 53.4498 16.6797 53.4879 16.502C53.5946 16.0049 53.8468 15.5518 54.2121 15.1992C54.5774 14.8477 55.039 14.6143 55.5376 14.5283C56.0362 14.4424 56.549 14.5078 57.0101 14.7168C57.4712 14.9268 57.8595 15.2695 58.125 15.7021C58.3719 16.1045 58.5022 16.5674 58.5022 17.0391ZM89.3006 15.9824C89.5825 16.3867 89.7396 16.8643 89.7521 17.3574C89.7562 17.415 89.7582 17.4727 89.7582 17.5303C89.7582 17.8096 89.7095 18.0879 89.6139 18.3516C89.4986 18.6689 89.3179 18.959 89.0834 19.2012C88.849 19.4443 88.5662 19.6338 88.2535 19.7588C87.9409 19.8838 87.6054 19.9414 87.2692 19.9268C86.7784 19.9287 86.2979 19.7852 85.8879 19.5137C85.478 19.2422 85.1569 18.8555 84.9648 18.4014C84.833 18.0908 84.766 17.7568 84.766 17.4219C84.766 17.2686 84.7801 17.1143 84.8083 16.9619C84.8983 16.4775 85.1287 16.0303 85.4707 15.6758C85.8126 15.3223 86.2509 15.0781 86.7306 14.9727C87.2103 14.8682 87.7101 14.9082 88.1673 15.0879C88.6244 15.2676 89.0187 15.5791 89.3006 15.9824ZM45.4909 16.0312C45.763 16.4199 45.9148 16.8818 45.9273 17.3574L45.9061 17.3574C45.9085 17.4004 45.9096 17.4434 45.9096 17.4854C45.9096 17.7666 45.8597 18.0449 45.7618 18.3086C45.6491 18.6123 45.4753 18.8896 45.2512 19.123C45.0271 19.3564 44.7576 19.54 44.4594 19.6641C44.1613 19.7881 43.8409 19.8486 43.5184 19.8418C43.0447 19.8418 42.5816 19.7012 42.1869 19.4385C41.7923 19.1748 41.4836 18.8008 41.2996 18.3623C41.1741 18.0625 41.1103 17.7432 41.1103 17.4219C41.1103 17.2715 41.1242 17.1211 41.1522 16.9727C41.2401 16.5049 41.4633 16.0732 41.7939 15.7324C42.1245 15.3916 42.5478 15.1562 43.0108 15.0557C43.4738 14.9551 43.956 14.9941 44.3972 15.167C44.8383 15.3408 45.2187 15.6416 45.4909 16.0312ZM70.8468 16.0293C71.1194 16.4199 71.2715 16.8818 71.2839 17.3574L71.2734 17.3574C71.2757 17.4004 71.2768 17.4434 71.2768 17.4854C71.2768 17.7666 71.2269 18.0449 71.1291 18.3086C71.0164 18.6123 70.8425 18.8896 70.6184 19.123C70.3943 19.3564 70.1248 19.54 69.8266 19.6641C69.5285 19.7881 69.2081 19.8486 68.8856 19.8418C68.4115 19.8438 67.9473 19.7051 67.5513 19.4434C67.1553 19.1816 66.845 18.8076 66.6593 18.3691C66.5318 18.0684 66.467 17.7461 66.467 17.4219C66.467 17.2734 66.4805 17.125 66.5077 16.9785C66.5944 16.5107 66.8168 16.0781 67.1469 15.7363C67.477 15.3945 67.9003 15.1572 68.3636 15.0566C68.8269 14.9551 69.3096 14.9932 69.7514 15.166C70.1931 15.3398 70.5741 15.6396 70.8468 16.0293Z" fill="#1D2130" fill-opacity="1.000000" fill-rule="evenodd"/>
	</g>
</svg>
