<svg width="133.702728" height="31.017578" viewBox="0 0 133.703 31.0176" fill="none" xmlns="http://www.w3.org/2000/svg" xmlns:xlink="http://www.w3.org/1999/xlink">
	<desc>
			Created with Pixso.
	</desc>
	<defs/>
	<g opacity="0.600000">
		<path id="Logo" d="M29.4542 4.51855C30.6395 6.24316 31.2737 8.28516 31.2736 10.374C31.2726 11.8311 30.9629 13.2715 30.3648 14.6016C29.7666 15.9316 28.8935 17.1211 27.8022 18.0918L27.8022 31.0176L0 31.0176L0 3.36035L13.1678 3.36035C14.5876 1.82031 16.4415 0.743164 18.4869 0.269531C20.5323 -0.204102 22.6737 -0.0517578 24.6307 0.707031C26.5876 1.46484 28.2689 2.79297 29.4542 4.51855ZM25.0722 13.1895C25.6297 12.3555 25.9262 11.376 25.9241 10.374C25.9214 9.03418 25.3843 7.74902 24.4309 6.80273C23.4774 5.85547 22.1855 5.32422 20.8385 5.32422C19.8322 5.32422 18.8485 5.62109 18.012 6.17773C17.1754 6.73438 16.5236 7.52539 16.139 8.4502C15.7544 9.37598 15.6543 10.3945 15.8513 11.376C16.0484 12.3584 16.5338 13.2598 17.2462 13.9678C17.9585 14.6748 18.8656 15.1562 19.8528 15.3496C20.84 15.5439 21.8629 15.4424 22.792 15.0576C23.7211 14.6729 24.5146 14.0225 25.0722 13.1895ZM78.5762 9.36719C78.3953 9.66016 78.3065 10 78.3212 10.3428L78.3423 10.3535C78.345 10.5732 78.3916 10.79 78.4792 10.9912C78.5669 11.1934 78.6939 11.376 78.8529 11.5283C79.0119 11.6807 79.1998 11.7998 79.4055 11.8789C79.6113 11.959 79.8309 11.9971 80.0516 11.9912C80.3969 11.9912 80.7343 11.8877 81.0202 11.6953C81.3061 11.5029 81.5276 11.2295 81.6561 10.9102C81.7846 10.5918 81.8143 10.2412 81.7413 9.90527C81.6684 9.56934 81.4961 9.2627 81.2466 9.02539C80.9972 8.78809 80.682 8.62988 80.3416 8.57227C80.0013 8.51367 79.6512 8.55859 79.3366 8.7002C79.022 8.8418 78.7572 9.07422 78.5762 9.36719ZM5.34943 25.6943L22.4528 25.6943L22.4528 20.6221C21.9192 20.7109 21.3794 20.7559 20.8385 20.7588C18.0718 20.7559 15.4192 19.6611 13.4629 17.7148C11.5065 15.7676 10.4062 13.1279 10.4034 10.374C10.4081 9.80762 10.461 9.24219 10.5617 8.68359L5.34943 8.68359L5.34943 25.6943ZM41.3606 9.48145L37.9737 9.48145L37.9737 23.1318L41.3606 23.1318L41.3606 9.48145ZM104.488 16.0547C104.467 13.9131 102.705 12.5791 99.8666 12.5791L99.93 12.5898C97.0706 12.5898 95.298 13.9023 95.2347 15.96C95.2347 17.5459 96.3004 18.6064 98.3367 19.0371L100.299 19.4463C101.112 19.6143 101.428 19.709 101.428 20.2656C101.428 20.8223 100.964 21.1367 99.9722 21.1367C98.9803 21.1367 98.3684 20.6855 98.2734 19.9189L94.992 19.9189C95.1292 22.0293 97.0178 23.415 99.9194 23.415C102.821 23.415 104.773 21.9873 104.773 19.8877C104.773 18.3232 103.929 17.4824 101.819 17.042L99.6451 16.6006C98.8643 16.4434 98.4739 16.2754 98.4739 15.7402C98.4739 15.2041 98.9171 14.8477 99.8456 14.8477C100.774 14.8477 101.397 15.3096 101.397 16.0547L104.488 16.0547ZM47.9867 12.5898C44.8214 12.5898 42.7111 14.6162 42.7111 17.9971C42.7111 21.4521 44.7475 23.4258 47.9867 23.4258C51.2259 23.4258 53.2623 21.3779 53.2623 17.9971C53.2623 14.6162 51.152 12.5898 47.9867 12.5898ZM71.674 12.5898C68.5086 12.5898 66.3984 14.6162 66.3984 17.9971L66.4195 17.9971C66.4195 21.4521 68.4453 23.4258 71.674 23.4258C74.9026 23.4258 76.9496 21.3779 76.9496 17.9971C76.9496 14.6162 74.8393 12.5898 71.674 12.5898ZM121.043 12.8213L117.751 12.8213L117.772 23.1738L121.159 23.1738L121.159 17.0625C121.132 16.8506 121.151 16.6348 121.214 16.4297C121.278 16.2256 121.385 16.0371 121.528 15.877C121.67 15.7168 121.846 15.5889 122.043 15.502C122.239 15.415 122.452 15.3711 122.668 15.3721C123.596 15.3721 124.113 15.9287 124.113 16.9785L124.113 23.1738L127.342 23.1738L127.342 17.042C127.313 16.832 127.33 16.6182 127.392 16.415C127.454 16.2129 127.559 16.0254 127.7 15.8672C127.841 15.708 128.015 15.582 128.21 15.4971C128.405 15.4111 128.617 15.3691 128.83 15.3721C129.79 15.3721 130.286 15.96 130.286 17.0107L130.286 23.1738L133.694 23.1738L133.694 16.1494C133.728 15.6895 133.665 15.2275 133.507 14.7939C133.35 14.3594 133.102 13.9639 132.781 13.6318C132.459 13.2998 132.07 13.0391 131.64 12.8662C131.21 12.6943 130.749 12.6143 130.286 12.6318C129.589 12.5996 128.901 12.7969 128.328 13.1934C127.756 13.5908 127.331 14.165 127.12 14.8262L126.973 14.8262C126.852 14.168 126.488 13.5781 125.954 13.1729C125.419 12.7666 124.751 12.5742 124.082 12.6318C123.414 12.6182 122.761 12.8252 122.225 13.2207C121.688 13.6162 121.299 14.1768 121.117 14.8154L121.043 14.8154L121.043 12.8213ZM89.9802 23.3213C92.5652 23.3213 94.0846 21.3682 94.0846 17.9971L94.1479 18.0078C94.1479 14.627 92.618 12.6846 89.9591 12.7051C89.2894 12.6738 88.6262 12.8486 88.0597 13.2051C87.4933 13.5625 87.0512 14.084 86.7938 14.7002L86.7305 14.7002L86.7305 12.8525L83.3647 12.8525L83.3647 26.502L86.7516 26.502L86.7516 21.3994L86.8149 21.3994C87.0815 22.0039 87.5279 22.5117 88.094 22.8555C88.66 23.1992 89.3184 23.3613 89.9802 23.3213ZM57.8837 23.835L54.6128 23.835L54.6339 23.8457C54.8238 25.7256 56.7019 27.0586 59.6351 27.0693C62.8638 27.0693 65.0584 25.5264 65.0584 23.0586L65.0584 12.8311L61.7032 12.8311L61.7032 14.5254C61.4391 13.999 61.0347 13.5537 60.5325 13.2393C59.9655 12.8838 59.3018 12.7119 58.6328 12.7471C55.9845 12.7471 54.4123 14.7637 54.4123 17.9971C54.4123 21.2314 56.0583 23.1113 58.5378 23.1113C59.1902 23.1582 59.8417 23.0088 60.4067 22.6807C60.9646 22.3564 61.4124 21.874 61.6926 21.2959L61.6926 23.1631C61.6926 24.1924 61.0173 24.8857 59.7196 24.8857C59.3403 24.9336 58.9556 24.8574 58.6241 24.668C58.2926 24.4785 58.0326 24.1855 57.8837 23.835ZM61.6926 21.2959C61.6962 21.2881 61.6997 21.2803 61.7032 21.2734L61.6926 21.2734L61.6926 21.2959ZM61.7032 14.5254L61.7032 14.7314L61.7981 14.7314C61.7689 14.6621 61.7372 14.5928 61.7032 14.5254ZM81.7503 12.8213L78.3212 12.8213L78.374 23.1738L81.7503 23.1738L81.7503 12.8213ZM112.834 23.1631L116.115 23.1631L116.179 12.8311L112.802 12.8311L112.802 18.6592C112.839 18.9023 112.822 19.1514 112.753 19.3877C112.685 19.625 112.566 19.8438 112.405 20.0312C112.244 20.2178 112.044 20.3691 111.82 20.4727C111.595 20.5762 111.351 20.6309 111.104 20.6328C110.049 20.6328 109.405 19.9717 109.405 18.7529L109.405 12.8311L106.018 12.8311L106.018 19.4775C105.976 19.9844 106.042 20.4932 106.212 20.9717C106.382 21.4512 106.651 21.8887 107.003 22.2568C107.355 22.624 107.781 22.9141 108.253 23.1064C108.725 23.2988 109.233 23.3896 109.743 23.373C110.418 23.4102 111.086 23.2178 111.636 22.8262C112.187 22.4355 112.587 21.8691 112.771 21.2207L112.834 21.2207L112.834 23.1631ZM48.0183 15.0469C49.179 15.0469 49.907 16.1387 49.907 17.9971L49.9281 18.0078C49.9281 19.8975 49.179 20.9375 48.0183 20.9375C46.8577 20.9375 46.1402 19.8975 46.1402 17.9971C46.1402 16.0967 46.8577 15.0469 48.0183 15.0469ZM71.7057 15.0469C72.8557 15.0469 73.5943 16.1387 73.5943 17.9971L73.6154 18.0078C73.6154 19.8975 72.8663 20.9375 71.7057 20.9375C70.545 20.9375 69.8275 19.8975 69.8275 17.9971C69.8275 16.0967 70.5556 15.0469 71.7057 15.0469ZM88.6719 15.2988C89.8642 15.2988 90.6344 16.3594 90.6344 17.9971L90.6977 18.0078C90.6977 19.709 89.8642 20.6855 88.6719 20.6855C87.4796 20.6855 86.7094 19.6455 86.7199 17.9971C86.7305 16.3486 87.4796 15.2988 88.6719 15.2988ZM59.7407 15.3096C60.9435 15.3096 61.7032 16.3486 61.7032 17.9971C61.7032 19.709 60.954 20.6016 59.7407 20.6016C58.5273 20.6016 57.7993 19.6357 57.7993 17.9971C57.7993 16.3594 58.5378 15.3096 59.7407 15.3096Z" fill="#1D2130" fill-opacity="1.000000" fill-rule="evenodd"/>
	</g>
</svg>
