<svg width="123.499023" height="24.559570" viewBox="0 0 123.499 24.5596" fill="none" xmlns="http://www.w3.org/2000/svg" xmlns:xlink="http://www.w3.org/1999/xlink">
	<desc>
			Created with Pixso.
	</desc>
	<defs/>
	<g opacity="0.600000">
		<path id="Logo" d="M0.430298 10.7998C1.20456 7.71582 2.99774 4.97754 5.52432 3.02051C8.0509 1.06348 11.1656 0 14.3725 0C17.5794 0 20.6941 1.06348 23.2207 3.02051C25.7473 4.97754 27.5405 7.71582 28.3147 10.7998L27.0554 10.7998C24.9309 10.7695 22.85 11.3984 21.1049 12.5996C21.0042 12.6719 20.899 12.7373 20.79 12.7969L20.6431 12.7969C20.5341 12.7373 20.429 12.6719 20.3282 12.5996C18.5677 11.4258 16.4941 10.7998 14.3725 10.7998C12.2509 10.7998 10.1774 11.4258 8.41675 12.5996C8.31604 12.6719 8.21091 12.7373 8.10193 12.7969L7.95499 12.7969C7.84601 12.7373 7.74088 12.6719 7.64017 12.5996C5.89502 11.3984 3.81412 10.7695 1.68964 10.7998L0.430298 10.7998ZM39.7015 19.9727C39.0772 20.0068 38.4598 19.8301 37.9489 19.4736C37.7353 19.3164 37.5635 19.1104 37.4484 18.873C37.3418 18.6533 37.2866 18.4131 37.2866 18.1699C37.2866 18.1504 37.287 18.1309 37.2877 18.1113L37.2877 8.4707C37.2863 8.45898 37.2856 8.44824 37.2856 8.4375C37.2856 8.40723 37.2906 8.37793 37.3004 8.34961C37.3139 8.31055 37.3362 8.27539 37.3655 8.24609C37.3949 8.2168 37.4305 8.19531 37.4698 8.18164C37.509 8.16797 37.5508 8.16406 37.592 8.16895L39.3552 8.16895C39.5545 8.16895 39.649 8.27246 39.649 8.4707L39.649 17.3623C39.649 17.7578 39.8274 17.9551 40.1947 17.9551C40.3504 17.9619 40.5062 17.9443 40.6565 17.9033C40.8664 17.9033 40.9818 17.9658 40.9923 18.1533L41.1497 19.4531C41.1532 19.4697 41.1549 19.4873 41.1549 19.5049C41.1549 19.5264 41.1525 19.5469 41.1476 19.5674C41.1387 19.6055 41.1217 19.6406 41.0978 19.6709C41.0739 19.7012 41.0438 19.7266 41.0093 19.7441C40.9748 19.7627 40.9368 19.7734 40.8979 19.7754C40.5117 19.9014 40.1082 19.9688 39.7015 19.9727ZM74.8378 10.3838C74.5604 10.625 74.2042 10.7578 73.8355 10.7578C73.4669 10.7578 73.1107 10.625 72.8333 10.3838C72.7075 10.2666 72.6073 10.125 72.5388 9.9668C72.4703 9.80957 72.435 9.64062 72.435 9.46875C72.435 9.29785 72.4703 9.12793 72.5388 8.9707C72.6073 8.81348 72.7075 8.6709 72.8333 8.55371C73.1136 8.31934 73.4686 8.19043 73.8355 8.19043C74.2024 8.19043 74.5575 8.31934 74.8378 8.55371C74.9636 8.6709 75.0638 8.81348 75.1323 8.9707C75.2007 9.12793 75.2361 9.29785 75.2361 9.46875C75.2361 9.64062 75.2007 9.80957 75.1323 9.9668C75.0638 10.125 74.9636 10.2666 74.8378 10.3838ZM92.1121 19.9727C91.17 20.0107 90.2358 19.7881 89.4149 19.3281C89.0856 19.1318 88.8051 18.8643 88.5944 18.5449C88.3836 18.2266 88.248 17.8652 88.1975 17.4873C88.1975 17.2793 88.271 17.1748 88.5019 17.1748L90.0446 17.1748C90.118 17.1777 90.1892 17.2012 90.2503 17.2412C90.3114 17.2812 90.36 17.3379 90.3909 17.4043C90.6113 17.9658 91.1885 18.2461 92.1121 18.2461C92.4342 18.2607 92.755 18.1963 93.0461 18.0596C93.1466 18.0146 93.2328 17.9434 93.2957 17.8535C93.3585 17.7637 93.3956 17.6582 93.4029 17.5498C93.4029 17.2793 93.235 17.0918 92.8992 16.9668C92.5008 16.8359 92.0891 16.749 91.6713 16.707C91.1765 16.6514 90.6857 16.5645 90.202 16.4473C89.7317 16.3418 89.304 16.0986 88.9742 15.75C88.7799 15.5137 88.6369 15.2393 88.554 14.9453C88.4991 14.75 88.4713 14.5488 88.4713 14.3467C88.4713 14.2451 88.4784 14.1426 88.4926 14.041C88.535 13.7393 88.6396 13.4482 88.8001 13.1875C88.9606 12.9268 89.1734 12.7021 89.4254 12.5264C90.1819 12.0488 91.0694 11.8164 91.9651 11.8613C92.8324 11.832 93.6905 12.0439 94.4419 12.4746C94.7447 12.6445 95.0055 12.8789 95.2052 13.1621C95.4049 13.4443 95.5385 13.7676 95.5963 14.1074C95.5963 14.3154 95.5019 14.4189 95.313 14.4189L93.7597 14.4189C93.6943 14.4229 93.6293 14.4072 93.5731 14.374C93.517 14.3408 93.4723 14.291 93.4449 14.2324C93.3411 13.9854 93.1457 13.7881 92.8992 13.6807C92.621 13.5371 92.3104 13.4648 91.9966 13.4727C91.689 13.4561 91.3821 13.5166 91.1046 13.6494C91.0068 13.6875 90.9225 13.7529 90.8627 13.8379C90.8028 13.9229 90.7701 14.0244 90.7687 14.1279C90.7755 14.2705 90.828 14.4062 90.9186 14.5166C91.0093 14.6279 91.1334 14.7061 91.2725 14.7412C91.6755 14.8926 92.0945 14.9971 92.5214 15.0537C93.0122 15.1172 93.4991 15.208 93.9801 15.3242C94.4505 15.4297 94.8781 15.6719 95.208 16.0205C95.3845 16.2129 95.5208 16.4375 95.609 16.6826C95.6858 16.8945 95.7249 17.1191 95.7249 17.3438C95.7249 17.3779 95.724 17.4121 95.7223 17.4453C95.7227 17.4629 95.7229 17.4805 95.7229 17.4971C95.7229 17.8389 95.6379 18.1758 95.4751 18.4775C95.304 18.7949 95.0529 19.0625 94.7462 19.2549C93.9621 19.7539 93.0433 20.0039 92.1121 19.9727ZM49.619 18.8604C48.733 19.5859 47.6198 19.9824 46.4706 19.9824C45.3214 19.9824 44.2081 19.5859 43.3221 18.8604C42.5435 18.0811 42.1066 17.0293 42.1066 15.9326C42.1066 14.8359 42.5435 13.7842 43.3221 13.0049C44.2098 12.2832 45.3224 11.8887 46.4706 11.8887C47.6187 11.8887 48.7313 12.2832 49.619 13.0049C50.3797 13.791 50.8044 14.8379 50.8044 15.9277C50.8044 17.0166 50.3797 18.0635 49.619 18.8496L49.619 18.8604ZM69.8632 18.8604C68.9756 19.582 67.8629 19.9766 66.7148 19.9766C65.5667 19.9766 64.454 19.582 63.5664 18.8604C62.805 18.0723 62.38 17.0234 62.38 15.9326C62.38 14.8418 62.805 13.793 63.5664 13.0049C64.4549 12.2852 65.5672 11.8916 66.7148 11.8916C67.8624 11.8916 68.9747 12.2852 69.8632 13.0049C70.624 13.791 71.0487 14.8379 71.0487 15.9277C71.0487 17.0166 70.624 18.0635 69.8632 18.8496L69.8632 18.8604ZM83.0027 11.9023C83.5535 11.8809 84.1029 11.9697 84.6185 12.1621C85.1342 12.3555 85.6054 12.6484 86.0042 13.0254C86.7464 13.8154 87.159 14.8535 87.159 15.9326C87.159 17.0117 86.7464 18.0498 86.0042 18.8389C85.6073 19.2197 85.1367 19.5156 84.6207 19.7109C84.1048 19.9062 83.5544 19.9951 83.0027 19.9727C82.2169 19.9902 81.4467 19.7529 80.8094 19.2969L80.8094 23.0518C80.8094 23.249 80.7044 23.3428 80.505 23.3428L78.7419 23.3428C78.7017 23.3496 78.6602 23.3477 78.6211 23.3359C78.582 23.3232 78.5465 23.3027 78.5175 23.2734C78.4886 23.2451 78.4671 23.21 78.455 23.1709C78.4475 23.1475 78.4438 23.1221 78.4438 23.0967C78.4438 23.082 78.4452 23.0664 78.4481 23.0518L78.4481 14.5234C78.4519 14.4971 78.4538 14.4707 78.4538 14.4443C78.4538 14.3867 78.4445 14.3301 78.4261 14.2744C78.3994 14.1943 78.3542 14.1221 78.294 14.0625C78.2338 14.0029 78.1605 13.958 78.0797 13.9316C77.9989 13.9053 77.913 13.8975 77.8289 13.9102L77.4825 13.9102C77.2516 13.9102 77.1362 13.8262 77.1362 13.6602L77.1362 12.4326C77.1357 12.4248 77.1354 12.417 77.1354 12.4092C77.1354 12.3418 77.1563 12.2754 77.1957 12.2188C77.2396 12.1562 77.3038 12.1113 77.3776 12.0898C77.7406 11.959 78.1248 11.8955 78.511 11.9023C78.8961 11.8691 79.2827 11.9492 79.6211 12.1348C79.9595 12.3203 80.2344 12.6016 80.4106 12.9424C80.7486 12.6035 81.1528 12.3369 81.5985 12.1582C82.0442 11.9795 82.522 11.8926 83.0027 11.9023ZM123.491 19.4531C123.496 19.4736 123.499 19.4941 123.499 19.5156C123.499 19.5322 123.497 19.5498 123.494 19.5664C123.486 19.6045 123.47 19.6396 123.447 19.6709C123.424 19.7012 123.395 19.7266 123.36 19.7451C123.326 19.7627 123.289 19.7734 123.25 19.7754C122.86 19.9014 122.453 19.9678 122.043 19.9727C121.419 20.0049 120.802 19.8291 120.29 19.4736C120.069 19.3213 119.889 19.1172 119.767 18.8799C119.648 18.6514 119.587 18.3975 119.587 18.1406C119.587 18.1309 119.587 18.1211 119.587 18.1113L119.587 15.667C119.589 15.6387 119.589 15.6094 119.589 15.5811C119.589 15.1445 119.433 14.7217 119.146 14.3877C118.999 14.2256 118.817 14.0977 118.614 14.0127C118.411 13.9287 118.191 13.8896 117.971 13.8994C117.773 13.8916 117.575 13.9287 117.393 14.0088C117.211 14.0879 117.05 14.207 116.922 14.3564C116.662 14.6836 116.521 15.0879 116.521 15.502C116.521 15.5293 116.522 15.5566 116.523 15.584L116.523 19.4219C116.523 19.6191 116.428 19.7236 116.229 19.7236L114.455 19.7236C114.414 19.7285 114.372 19.7236 114.333 19.7109C114.294 19.6973 114.258 19.6748 114.229 19.6465C114.199 19.6172 114.177 19.582 114.164 19.543C114.154 19.5146 114.149 19.4844 114.149 19.4551C114.149 19.4443 114.15 19.4326 114.151 19.4219L114.151 15.667C114.153 15.6357 114.153 15.6045 114.153 15.5723C114.153 15.1445 114.009 14.7275 113.742 14.3877C113.614 14.2354 113.453 14.1123 113.272 14.0273C113.091 13.9434 112.893 13.8994 112.692 13.8994C112.478 13.8906 112.265 13.9268 112.066 14.0059C111.867 14.085 111.687 14.2041 111.538 14.3564C111.258 14.6709 111.105 15.0752 111.105 15.4922C111.105 15.5225 111.106 15.5537 111.107 15.584L111.107 19.4219C111.109 19.4326 111.11 19.4443 111.11 19.4551C111.11 19.4844 111.105 19.5146 111.095 19.543C111.081 19.582 111.059 19.6172 111.03 19.6465C111 19.6748 110.965 19.6973 110.925 19.7109C110.886 19.7236 110.844 19.7285 110.803 19.7236L109.093 19.7236C108.893 19.7236 108.799 19.6191 108.799 19.4219L108.799 14.5234C108.803 14.4971 108.804 14.4707 108.804 14.4443C108.804 14.3867 108.795 14.3301 108.777 14.2744C108.75 14.1943 108.705 14.1221 108.645 14.0625C108.584 14.0029 108.511 13.958 108.43 13.9316C108.35 13.9053 108.264 13.8975 108.179 13.9102L107.833 13.9102C107.602 13.9102 107.487 13.8262 107.487 13.6602L107.487 12.4326C107.486 12.4248 107.486 12.417 107.486 12.4092C107.486 12.3418 107.507 12.2754 107.546 12.2188C107.59 12.1562 107.654 12.1113 107.728 12.0898C108.091 11.959 108.475 11.8955 108.862 11.9023C109.232 11.8711 109.604 11.9443 109.935 12.1133C110.266 12.2832 110.541 12.541 110.73 12.8594C111.084 12.5264 111.503 12.2705 111.962 12.1055C112.421 11.9404 112.909 11.8721 113.395 11.9023C113.868 11.8799 114.34 11.9678 114.772 12.1592C115.204 12.3506 115.585 12.6406 115.883 13.0049C116.23 12.6309 116.657 12.3379 117.132 12.1475C117.608 11.957 118.12 11.873 118.632 11.9023C119.09 11.8809 119.548 11.9541 119.976 12.1172C120.404 12.2803 120.793 12.5293 121.119 12.8486C121.438 13.1826 121.686 13.5762 121.846 14.0068C121.986 14.3838 122.058 14.7812 122.058 15.1816C122.058 15.2393 122.056 15.2979 122.053 15.3555L122.053 17.3623C122.053 17.7578 122.232 17.9551 122.568 17.9551C122.73 17.9629 122.893 17.9453 123.051 17.9033C123.267 17.9033 123.383 17.9863 123.397 18.1533L123.491 19.4531ZM60.5125 12.1523C60.7119 12.1523 60.8063 12.2559 60.8063 12.4541L60.8063 19.9102C60.8078 19.9512 60.8086 19.9922 60.8086 20.0332C60.8086 20.4951 60.7133 20.9521 60.5281 21.377C60.3266 21.8398 60.0237 22.251 59.6414 22.583C58.7928 23.2998 57.7015 23.6719 56.5875 23.623C55.5812 23.6582 54.5883 23.3857 53.7434 22.8428C53.3826 22.6084 53.0744 22.3027 52.8379 21.9453C52.6013 21.5869 52.4416 21.1846 52.3686 20.7637C52.3686 20.5557 52.3686 20.4619 52.6519 20.4619L54.415 20.4619C54.4899 20.4639 54.5624 20.4883 54.6239 20.5303C54.6853 20.5732 54.7331 20.6318 54.7614 20.7012C54.8757 21.0166 55.1037 21.2793 55.4016 21.4395C55.7646 21.625 56.1686 21.7178 56.577 21.71C56.8234 21.7227 57.07 21.6875 57.3025 21.6055C57.5349 21.5234 57.7485 21.3965 57.9308 21.2314C58.0973 21.0586 58.2268 20.8545 58.3116 20.6309C58.3872 20.4316 58.4258 20.2217 58.4258 20.0088C58.4258 19.9834 58.4252 19.957 58.424 19.9316L58.424 19.2764C57.7928 19.7363 57.0244 19.9736 56.2411 19.9521C55.6929 19.9717 55.1463 19.8818 54.6341 19.6865C54.1219 19.4922 53.6548 19.1963 53.2606 18.8184C52.504 18.043 52.0811 17.0059 52.0811 15.9277C52.0811 14.8486 52.504 13.8115 53.2606 13.0361C53.6567 12.6611 54.1244 12.3691 54.6363 12.1758C55.1482 11.9834 55.6938 11.8936 56.2411 11.9131C57.0471 11.8916 57.8361 12.1455 58.4765 12.6309L58.4765 12.4639C58.4752 12.4531 58.4746 12.4424 58.4746 12.4316C58.4746 12.4023 58.4793 12.374 58.4888 12.3457C58.5017 12.3076 58.523 12.2734 58.5511 12.2441C58.5793 12.2148 58.6135 12.1934 58.6515 12.1787C58.6894 12.165 58.73 12.1592 58.7704 12.1621L60.5125 12.1523ZM75.0582 19.9727C74.4343 20.0029 73.8179 19.8281 73.3055 19.4736C73.0953 19.3145 72.9265 19.1074 72.8133 18.8711C72.7082 18.6504 72.6539 18.4111 72.6539 18.168C72.6539 18.1494 72.6542 18.1299 72.6549 18.1113L72.6549 12.4541C72.6535 12.4424 72.6528 12.4316 72.6528 12.4209C72.6528 12.3906 72.6578 12.3613 72.6676 12.333C72.6811 12.2939 72.7034 12.2588 72.7327 12.2295C72.7621 12.2002 72.7977 12.1777 72.837 12.165C72.8762 12.1514 72.918 12.1475 72.9592 12.1523L74.7224 12.1523C74.9218 12.1523 75.0162 12.2559 75.0162 12.4541L75.0162 17.3623C75.0162 17.7578 75.1946 17.9551 75.5514 17.9551C75.7106 17.9609 75.8697 17.9434 76.0237 17.9033C76.2336 17.9033 76.349 17.9658 76.3595 18.1533L76.5169 19.4531C76.5204 19.4707 76.5221 19.4883 76.5221 19.5049C76.5221 19.5264 76.5197 19.5469 76.5148 19.5674C76.5059 19.6055 76.4889 19.6406 76.465 19.6709C76.4411 19.7012 76.4109 19.7266 76.3765 19.7441C76.342 19.7627 76.304 19.7734 76.2651 19.7754C75.8755 19.9023 75.4683 19.9688 75.0582 19.9727ZM106.815 19.4531C106.818 19.4678 106.819 19.4824 106.819 19.4971C106.819 19.5195 106.816 19.542 106.811 19.5635C106.802 19.6006 106.785 19.6348 106.763 19.6641C106.74 19.6943 106.712 19.7197 106.68 19.7383C106.647 19.7578 106.611 19.7705 106.574 19.7754C106.191 19.8994 105.791 19.9658 105.388 19.9727C104.989 20.0137 104.586 19.9521 104.219 19.7939C103.851 19.6348 103.531 19.3848 103.289 19.0684C102.548 19.6992 101.589 20.0234 100.613 19.9727C100.16 19.9932 99.7069 19.9199 99.284 19.7568C98.861 19.5938 98.4772 19.3447 98.1571 19.0264C97.8392 18.6924 97.5927 18.2979 97.4322 17.8672C97.291 17.4893 97.219 17.0889 97.219 16.6855C97.219 16.6309 97.2204 16.5752 97.2231 16.5205L97.2231 12.4541C97.2231 12.2559 97.3175 12.1523 97.5169 12.1523L99.28 12.1523C99.4794 12.1523 99.5739 12.2559 99.5739 12.4541L99.5739 16.208C99.5729 16.2334 99.5724 16.2578 99.5724 16.2832C99.5724 16.7246 99.7326 17.1523 100.025 17.4873C100.179 17.6494 100.367 17.7773 100.575 17.8613C100.783 17.9453 101.007 17.9844 101.232 17.9756C101.462 17.9863 101.692 17.9512 101.908 17.8721C102.124 17.7939 102.322 17.6738 102.491 17.5186C102.651 17.3555 102.776 17.1611 102.857 16.9482C102.929 16.7598 102.966 16.5605 102.966 16.3594C102.966 16.333 102.965 16.3066 102.964 16.2812L102.964 12.4541C102.964 12.2559 103.058 12.1523 103.258 12.1523L105.042 12.1523C105.241 12.1523 105.335 12.2559 105.335 12.4541L105.335 17.3516C105.335 17.7578 105.514 17.9551 105.86 17.9551C106.023 17.9619 106.185 17.9443 106.343 17.9033C106.383 17.8926 106.424 17.8906 106.465 17.8975C106.505 17.9043 106.544 17.9209 106.577 17.9453C106.61 17.9688 106.638 18 106.657 18.0361C106.677 18.0723 106.688 18.1123 106.689 18.1533L106.815 19.4531ZM27.0554 16.582C26.2363 16.5605 25.435 16.8223 24.7885 17.3213C23.592 18.1465 22.1692 18.5889 20.7113 18.5889C19.2535 18.5889 17.8306 18.1465 16.6341 17.3213C15.9885 16.8203 15.1866 16.5596 14.3673 16.582C13.5484 16.5625 12.7477 16.8232 12.1004 17.3213C10.9061 18.1465 9.4848 18.5898 8.02844 18.5898C6.57211 18.5898 5.15082 18.1465 3.95651 17.3213C3.31003 16.8223 2.50876 16.5605 1.68964 16.582L0 16.582L0 13.2441L1.74213 13.2441C3.20276 13.2158 4.63278 13.6611 5.81409 14.5127C6.47073 14.9922 7.26511 15.252 8.08093 15.252C8.89676 15.252 9.69113 14.9922 10.3478 14.5127C11.5443 13.6875 12.9671 13.2451 14.425 13.2451C15.8828 13.2451 17.3057 13.6875 18.5022 14.5127C19.1588 14.9922 19.9532 15.252 20.769 15.252C21.5849 15.252 22.3792 14.9922 23.0359 14.5127C24.2028 13.6719 25.6126 13.2266 27.0554 13.2441L28.745 13.2441L28.745 16.582L27.0554 16.582ZM81.3656 17.4873C81.5527 17.6807 81.7775 17.835 82.0264 17.9404C82.2753 18.0459 82.5432 18.1006 82.8138 18.1006C83.0845 18.1006 83.3524 18.0459 83.6013 17.9404C83.8502 17.835 84.075 17.6807 84.2621 17.4873C84.6357 17.0742 84.8412 16.54 84.8412 15.9873C84.8412 15.957 84.8406 15.9268 84.8393 15.8965C84.8409 15.8613 84.8417 15.8271 84.8417 15.793C84.8417 15.2441 84.6359 14.7129 84.2621 14.3047C84.075 14.1113 83.8502 13.957 83.6013 13.8516C83.3524 13.7461 83.0845 13.6914 82.8138 13.6914C82.5432 13.6914 82.2753 13.7461 82.0264 13.8516C81.7775 13.957 81.5527 14.1113 81.3656 14.3047C81.0047 14.7227 80.8074 15.2529 80.8074 15.8008C80.8074 15.832 80.808 15.8643 80.8094 15.8965C80.8083 15.9248 80.8078 15.9521 80.8078 15.9805C80.8078 16.5312 81.0049 17.0654 81.3656 17.4873ZM56.4405 18.1006C56.7109 18.1094 56.9798 18.0586 57.2283 17.9521C57.4767 17.8467 57.6986 17.6875 57.8783 17.4873C58.2272 17.041 58.4165 16.4922 58.4165 15.9277C58.4165 15.3623 58.2272 14.8135 57.8783 14.3672C57.6992 14.1699 57.4787 14.0127 57.2321 13.9092C56.9855 13.8047 56.7189 13.7549 56.451 13.7637C56.1776 13.7559 55.9055 13.8057 55.6536 13.9121C55.4017 14.0176 55.1761 14.1768 54.9922 14.3779C54.6255 14.7832 54.4238 15.3076 54.4238 15.8496C54.4238 15.8789 54.4244 15.9082 54.4255 15.9375C54.4247 15.9629 54.4243 15.9873 54.4243 16.0117C54.4243 16.5537 54.6218 17.0781 54.9818 17.4873C55.166 17.6875 55.3917 17.8457 55.6435 17.9521C55.8953 18.0576 56.1671 18.1084 56.4405 18.1006ZM44.9803 17.4873C45.3914 17.8564 45.9263 18.0605 46.481 18.0605C47.0358 18.0605 47.5707 17.8564 47.9818 17.4873C48.3539 17.0635 48.5588 16.5205 48.5588 15.959C48.5588 15.3965 48.3539 14.8535 47.9818 14.4297C47.5707 14.0605 47.0358 13.8564 46.481 13.8564C45.9263 13.8564 45.3914 14.0605 44.9803 14.4297C44.6082 14.8535 44.4033 15.3965 44.4033 15.959C44.4033 16.5205 44.6082 17.0635 44.9803 17.4873ZM65.2141 17.4873C65.4153 17.6768 65.6524 17.8252 65.9119 17.9229C66.1713 18.0215 66.4478 18.0674 66.7253 18.0596C67.0011 18.0664 67.2756 18.0195 67.5331 17.9209C67.7906 17.8232 68.0261 17.6758 68.2261 17.4873C68.5921 17.0605 68.793 16.5186 68.793 15.958C68.793 15.3984 68.5921 14.8564 68.2261 14.4297C68.0261 14.2412 67.7906 14.0938 67.5331 13.9951C67.2756 13.8975 67.0011 13.8506 66.7253 13.8574C66.4478 13.8496 66.1713 13.8955 65.9119 13.9932C65.6524 14.0918 65.4153 14.2402 65.2141 14.4297C64.8481 14.8564 64.6471 15.3984 64.6471 15.958C64.6471 16.5186 64.8481 17.0605 65.2141 17.4873ZM27.0554 22.5518C26.2363 22.5303 25.435 22.792 24.7885 23.29C23.592 24.1162 22.1692 24.5586 20.7113 24.5586C19.2535 24.5586 17.8306 24.1162 16.6341 23.29C15.9885 22.79 15.1866 22.5293 14.3673 22.5518C13.5484 22.5322 12.7477 22.793 12.1004 23.29C10.9061 24.1162 9.4848 24.5596 8.02844 24.5596C6.57211 24.5596 5.15082 24.1162 3.95651 23.29C3.31003 22.792 2.50876 22.5303 1.68964 22.5518L0 22.5518L0 19.2139L1.74213 19.2139C3.20276 19.1855 4.63278 19.6309 5.81409 20.4824C6.47073 20.9619 7.26511 21.2207 8.08093 21.2207C8.89676 21.2207 9.69113 20.9619 10.3478 20.4824C11.5443 19.6572 12.9671 19.2148 14.425 19.2148C15.8828 19.2148 17.3057 19.6572 18.5022 20.4824C19.1588 20.9619 19.9532 21.2207 20.769 21.2207C21.5849 21.2207 22.3792 20.9619 23.0359 20.4824C24.2028 19.6416 25.6126 19.1963 27.0554 19.2139L28.745 19.2139L28.745 22.5518L27.0554 22.5518Z" fill="#1D2130" fill-opacity="1.000000" fill-rule="evenodd"/>
	</g>
</svg>
